<?xml version="1.0" encoding="UTF-8" standalone="no"?>
<svg
   data-name="Layer 1"
   viewBox="0 0 49 49"
   x="0px"
   y="0px"
   version="1.1"
   id="svg18"
   sodipodi:docname="edit.svg"
   width="49"
   height="49"
   inkscape:version="1.2.2 (732a01da63, 2022-12-09)"
   xmlns:inkscape="http://www.inkscape.org/namespaces/inkscape"
   xmlns:sodipodi="http://sodipodi.sourceforge.net/DTD/sodipodi-0.dtd"
   xmlns="http://www.w3.org/2000/svg"
   xmlns:svg="http://www.w3.org/2000/svg">
  <sodipodi:namedview
     id="namedview20"
     pagecolor="#ffffff"
     bordercolor="#000000"
     borderopacity="0.25"
     inkscape:showpageshadow="2"
     inkscape:pageopacity="0.0"
     inkscape:pagecheckerboard="false"
     inkscape:deskcolor="#d1d1d1"
     showgrid="false"
     inkscape:zoom="9.5654791"
     inkscape:cx="15.73366"
     inkscape:cy="36.955807"
     inkscape:window-width="1920"
     inkscape:window-height="991"
     inkscape:window-x="-9"
     inkscape:window-y="-9"
     inkscape:window-maximized="1"
     inkscape:current-layer="svg18" />
  <defs
     id="defs4">
    <style
       id="style2">
      .cls-1 {
        stroke-width: 0px;
      }
    </style>
  </defs>
  <path
     class="cls-1"
     d="M 34.941406,47.909 H 6.9414062 c -3.309,0 -5.99999995,-2.691 -5.99999995,-6 v -28 c 0,-3.309 2.69099995,-6 5.99999995,-6 H 20.941406 c 1.104,0 2,0.896 2,2 0,1.104 -0.896,2 -2,2 H 6.9414062 c -1.103,0 -2,0.897 -2,2 v 28 c 0,1.103 0.897,2 2,2 H 34.941406 c 1.103,0 2,-0.897 2,-2 v -14 c 0,-1.104 0.896,-2 2,-2 1.104,0 2,0.896 2,2 v 14 c 0,3.309 -2.691,6 -6,6 z"
     id="path6" />
  <g
     id="g12"
     transform="translate(-7.0585937,-8.091)">
    <path
       class="cls-1"
       d="M 37.715,15.941 17.976,35.68 c -0.16,0.16 -0.261,0.37 -0.287,0.595 l -1.148,10.148 c -0.035,0.305 0.073,0.609 0.292,0.825 0.188,0.185 0.44,0.287 0.701,0.287 0.042,0 0.085,-0.003 0.128,-0.008 l 10,-1.297 c 0.219,-0.028 0.422,-0.128 0.579,-0.285 L 47.98,26.206 Z"
       id="path8" />
    <path
       class="cls-1"
       d="M 54.431,12.992 50.93,9.492 C 50.027,8.589 48.826,8.091 47.548,8.091 c -1.278,0 -2.479,0.498 -3.382,1.401 l -5.036,5.036 10.265,10.265 5.036,-5.036 c 1.865,-1.865 1.865,-4.899 0,-6.765 z"
       id="path10" />
  </g>
</svg>
