<?xml version="1.0" encoding="UTF-8" standalone="no"?>
<svg
   version="1.1"
   viewBox="-5 -10 63.000664 63.000214"
   id="svg373"
   width="63.000664"
   height="63.000214"
   xmlns="http://www.w3.org/2000/svg"
   xmlns:svg="http://www.w3.org/2000/svg">
  <defs
     id="defs377" />
  <path
     d="m 58.000659,14.738212 c 0.0039,-3.8438 -2.3125,-7.3085995 -5.8633,-8.7811995 -3.5508,-1.4688 -7.6406,-0.65625 -10.355,2.0625 l -3.1797,3.1796995 13.441,13.441 3.1797,-3.1992 h -0.0039 c 1.7812,-1.7773 2.7812,-4.1875 2.7812,-6.7031 z"
     id="path361" />
  <path
     d="m -4.999341,32.859212 c 0.00781,5.3945 4.3867,9.7617 9.7812,9.7617 h 0.94141 -0.00391 c 0.17188,-0.0039 0.34375,-0.03906 0.5,-0.10156 v -2.3398 c -0.00391,-0.15234 0.00391,-0.30859 0.019531,-0.46094 0.10547,-1.2891 0.66406,-2.5039 1.582,-3.418 l 3.5195,-3.5195 c -0.04297,-0.0039 -0.08203,-0.01953 -0.12109,-0.04297 -3.1758,-1.8438 -5.3125,-5.0586 -5.7891,-8.7031 -0.47266,-3.6445 0.77344,-7.3008 3.375,-9.8945 2.5977,-2.5977 6.2539,-3.8398 9.8984,-3.3594 3.6406,0.47656 6.8555,2.6211 8.6953,5.7969 0.01953,0.03906 0.03906,0.05859 0.03906,0.10156 l 7.4609,-7.4414 2.3203,-2.3202995 1.7383,-1.7188 h 0.0039 c 0.12109,-0.12891 0.25781,-0.25 0.39844,-0.35938 v -3.6992 c -0.0078,-1.27730007 -0.51562,-2.5000001 -1.418,-3.4023 l -6.3203,-6.3398 c -0.90234,-0.89844 -2.125,-1.4022995 -3.4023,-1.3984 H 4.7812 c -5.4023,0 -9.7812,4.3789 -9.7812,9.78119993 z m 13,-39.8589995 h 17 v 4.5 c 0,1.3788999 -1.1211,2.4999999 -2.5,2.4999999 h -12 c -1.3789,0 -2.5,-1.1211 -2.5,-2.4999999 z"
     id="path363" />
  <path
     d="m 25.461659,18.660212 c -0.28516,-0.10547 -0.51953,-0.3125 -0.66016,-0.58203 -1.375,-2.3672 -3.7734,-3.9609 -6.4883,-4.3164 -2.7188,-0.35547 -5.4453,0.57031 -7.3828,2.5078 -1.9375,1.9336 -2.8672,4.6602 -2.5156,7.375 0.34766,2.7148 1.9414,5.1172 4.3047,6.4961 0.26562,0.15234 0.47656,0.38281 0.60156,0.66016 z"
     id="path365" />
  <path
     d="m 10.219659,40.180212 v 11.32 c 0.0078,0.82422 0.67578,1.4922 1.5,1.5 h 11.32 c 0.39844,0 0.78125,-0.16016 1.0625,-0.44141 l 25.82,-25.801 -13.441,-13.441 -25.82,25.805 c -0.27734,0.28125 -0.4375,0.66016 -0.44141,1.0586 z"
     id="path367" />
</svg>
