<?xml version="1.0" encoding="UTF-8" standalone="no"?>
<svg
   version="1.1"
   viewBox="-5 -10 49 49"
   id="svg373"
   width="49"
   height="49"
   sodipodi:docname="save.svg"
   inkscape:export-filename="save.svg"
   inkscape:export-xdpi="96"
   inkscape:export-ydpi="96"
   inkscape:version="1.2.2 (732a01da63, 2022-12-09)"
   xmlns:inkscape="http://www.inkscape.org/namespaces/inkscape"
   xmlns:sodipodi="http://sodipodi.sourceforge.net/DTD/sodipodi-0.dtd"
   xmlns="http://www.w3.org/2000/svg"
   xmlns:svg="http://www.w3.org/2000/svg">
  <sodipodi:namedview
     id="namedview8"
     pagecolor="#ffffff"
     bordercolor="#000000"
     borderopacity="0.25"
     inkscape:showpageshadow="2"
     inkscape:pageopacity="0.0"
     inkscape:pagecheckerboard="0"
     inkscape:deskcolor="#d1d1d1"
     showgrid="false"
     inkscape:zoom="9.0239988"
     inkscape:cx="18.783247"
     inkscape:cy="31.748674"
     inkscape:window-width="1920"
     inkscape:window-height="991"
     inkscape:window-x="-9"
     inkscape:window-y="-9"
     inkscape:window-maximized="1"
     inkscape:current-layer="svg373" />
  <defs
     id="defs377" />
  <path
     d="M 42.999967,8.8480983 C 43.002905,5.9194987 41.238082,3.2796601 38.532741,2.1576829 35.8274,1.038601 32.711396,1.6576846 30.643305,3.7291062 l -2.422602,2.4226203 10.240648,10.2407265 2.422602,-2.437477 h -0.0029 C 42.238104,12.600847 43,10.76451 43,8.8478697 Z"
     id="path361"
     style="stroke-width:0.761899" />
  <path
     d="m -4.9994979,22.654528 c 0.00595,4.110082 3.3422104,7.437461 7.4522598,7.437461 h 0.7172567 -0.00298 c 0.1309547,-0.003 0.2619019,-0.02976 0.3809482,-0.07738 V 28.23191 c -0.00298,-0.116068 0.00298,-0.235116 0.014881,-0.351191 0.080357,-0.982168 0.5059448,-1.907727 1.2053198,-2.604182 l 2.681494,-2.681515 c -0.032739,-0.003 -0.062498,-0.01488 -0.092258,-0.03274 C 4.9377954,21.157489 3.3098517,18.708126 2.9467319,15.931373 2.586614,13.154621 3.536013,10.368878 5.5181318,8.3927322 7.4973098,6.4135391 10.282956,5.4671802 13.059686,5.8331977 c 2.77376,0.3630918 5.223179,1.9970217 6.624917,4.4166713 0.01488,0.02976 0.02976,0.04464 0.02976,0.07738 l 5.684432,-5.6696186 1.767827,-1.7678413 1.324404,-1.3095574 h 0.0029 c 0.09226,-0.098217 0.196424,-0.1904756 0.30357,-0.2738125 v -2.8184286 c -0.006,-0.9731777 -0.392849,-1.9047556 -1.080369,-2.5922198 l -4.815413,-4.8303076 c -0.68749,-0.6845234 -1.61903,-1.0684152 -2.5922,-1.065444 H 2.4522597 C -1.6637325,-9.9999828 -5,-6.6636893 -5,-2.5476651 Z M 4.9051535,-7.7141315 H 17.85739 v 3.4285599 c 0,1.0505868 -0.854161,1.9047554 -1.904741,1.9047554 H 6.8098943 c -1.0505788,0 -1.9047408,-0.8541686 -1.9047408,-1.9047554 z"
     id="path363"
     style="stroke-width:0.761899" />
  <path
     d="M 18.208624,11.836279 C 17.991362,11.755921 17.812796,11.598184 17.70565,11.392829 16.658043,9.5892534 14.830712,8.3750103 12.762239,8.1041539 10.690796,7.8333204 8.6134855,8.5386743 7.1373116,10.014853 c -1.4761741,1.473213 -2.1845091,3.550616 -1.9166263,5.619028 0.2648809,2.068412 1.4791454,3.898806 3.2797348,4.949393 0.2023749,0.116068 0.3630893,0.291664 0.4583264,0.502977 z"
     id="path365"
     style="stroke-width:0.761899" />
  <path
     d="m 6.5958014,28.232414 v 8.624733 C 6.6017475,37.485122 7.1106756,37.994057 7.7386458,38 h 8.6246662 c 0.303569,0 0.595231,-0.122026 0.809514,-0.336311 L 36.844988,18.00585 26.60434,7.7651231 6.9321786,27.426009 c -0.2113043,0.214285 -0.3333296,0.502978 -0.3363087,0.80655 z"
     id="path367"
     style="stroke-width:0.761899" />
</svg>
